<?xml version="1.0" encoding="UTF-8" standalone="yes"?><!-- Created with Inkscape (http://www.inkscape.org/) --><svg xmlns:dc="http://purl.org/dc/elements/1.1/" xmlns:cc="http://creativecommons.org/ns#" xmlns:rdf="http://www.w3.org/1999/02/22-rdf-syntax-ns#" xmlns:svg="http://www.w3.org/2000/svg" xmlns="http://www.w3.org/2000/svg" xmlns:sodipodi="http://sodipodi.sourceforge.net/DTD/sodipodi-0.dtd" xmlns:inkscape="http://www.inkscape.org/namespaces/inkscape" width="540" height="255" viewBox="0 0 142.875 67.468752" version="1.1" id="svg13048" inkscape:version="0.92.4 (5da689c313, 2019-01-14)" sodipodi:docname="scale_logo_lg.svg" style="zoom: 1;"><defs id="defs13042"></defs><sodipodi:namedview id="base" pagecolor="#ffffff" bordercolor="#666666" borderopacity="1.0" inkscape:pageopacity="0.0" inkscape:pageshadow="2" inkscape:zoom="0.98994949" inkscape:cx="259.60024" inkscape:cy="225.78608" inkscape:document-units="px" inkscape:current-layer="layer1" showgrid="false" units="px" inkscape:window-width="1366" inkscape:window-height="744" inkscape:window-x="0" inkscape:window-y="24" inkscape:window-maximized="1"></sodipodi:namedview><metadata id="metadata13045"><rdf:RDF><cc:Work rdf:about=""><dc:format>image/svg+xml</dc:format><dc:type rdf:resource="http://purl.org/dc/dcmitype/StillImage"></dc:type><dc:title></dc:title></cc:Work></rdf:RDF></metadata><g inkscape:label="Layer 1" inkscape:groupmode="layer" id="layer1" transform="translate(0,-229.53124)"><g id="g13669" transform="matrix(0.99755649,0,0,0.99738961,0.13222409,0.77527594)"><path d="M6.8516501,297 H119.41916 c16.05624,-9.51495 25.43916,-22.10806 23.57041,-34.38922 C139.80954,241.71769 105.2748,229.64449 65.854527,235.64444 C26.433992,241.6444 -2.944548,263.4458 0.23574376,284.33889 C0.9514417,289.04212 3.2604604,293.29636 6.8516501,297 " id="path12371" style="fill:#bbd9ea;stroke-width:0.26458335" inkscape:connector-curvature="0"></path><path style="stroke-width:0.26458335" id="path12374" d="m 15.380494,237.40789 c -0.758825,0 -1.415785,0.27861 -1.952625,0.82841 -0.533929,0.54637 -0.804598,1.20147 -0.804598,1.94681 0,0.63817 0.211138,1.23242 0.627063,1.76609 0,0 6.946635,8.81962 7.264664,9.22285 -0.659606,0 -4.613275,10e-4 -4.613275,10e-4 -0.122766,0 -0.180181,-0.0397 -0.219868,-0.078 -0.04498,-0.0434 -0.07461,-0.0923 -0.07461,-0.1897 0,-0.38471 -0.146579,-0.7366 -0.423862,-1.01865 -0.2794,-0.28443 -0.636588,-0.43418 -1.032669,-0.43418 -0.970756,0 -1.527704,0.58208 -1.527704,1.59649 0,0.77656 0.312473,1.4912 0.928158,2.12329 0.618596,0.63632 1.361546,0.95911 2.207419,0.95911 h 5.395383 c 0.665427,0 1.268677,-0.27755 1.793082,-0.82524 0.519377,-0.54213 0.782637,-1.18136 0.782637,-1.9005 0,-0.62971 -0.215106,-1.22396 -0.638969,-1.76583 0,0 -6.936581,-8.80851 -7.263341,-9.22364 0.59346,0 4.607718,0 4.607718,0 0.134673,0 0.235744,0.0204 0.306388,0.27702 0.137054,0.49742 0.282046,0.82683 0.456406,1.03849 0.22225,0.26882 0.583406,0.40508 1.073679,0.40508 0.375709,0 0.715169,-0.14579 1.00965,-0.43418 0.293423,-0.28681 0.448469,-0.6559 0.448469,-1.06839 0,-0.89482 -0.337873,-1.66635 -1.003829,-2.29367 -0.658019,-0.61939 -1.376363,-0.93319 -2.134923,-0.93319 h -5.21044 z" inkscape:connector-curvature="0"></path><path style="stroke-width:0.26458335" id="path12376" d="m 29.86405,237.40789 c -0.530755,0 -1.076325,0.18521 -1.622161,0.55139 -0.531019,0.35666 -0.930804,0.77946 -1.188508,1.25757 l -2.326216,4.40161 c -0.327554,0.61092 -0.494506,1.33773 -0.494506,2.15688 0,0.74163 0.171715,1.47373 0.510117,2.17673 l 2.306372,4.45849 c 0.241564,0.4535 0.65696,0.85646 1.237985,1.20174 0.579437,0.34448 1.157817,0.51937 1.718469,0.51937 h 3.730889 c 0.398727,0 0.762,-0.1471 1.05119,-0.42545 0.294481,-0.28363 0.450321,-0.64796 0.450321,-1.05383 0,-0.40561 -0.156104,-0.76994 -0.451115,-1.05331 -0.293952,-0.28231 -0.647964,-0.42545 -1.051983,-0.42545 h -3.605477 c -0.266436,0.002 -0.421746,-0.0995 -0.538692,-0.34898 l -2.109523,-4.07538 c -0.154252,-0.29078 -0.234156,-0.6313 -0.239977,-1.01785 0,-0.35243 0.068,-0.66278 0.202671,-0.91546 l 2.19366,-4.13253 c 0.15584,-0.2958 0.282311,-0.29236 0.33655,-0.2913 h 3.831961 c 0.406929,0 0.771789,-0.15558 1.055687,-0.45032 0.279136,-0.29025 0.426773,-0.65432 0.426773,-1.05305 0,-0.3929 -0.148166,-0.75168 -0.42836,-1.03769 -0.28284,-0.28946 -0.645584,-0.44212 -1.049867,-0.44212 h -3.94626 z" inkscape:connector-curvature="0"></path><path d="m 39.476627,237.40789 c -0.402431,0 -0.764381,0.14923 -1.047486,0.43207 -0.28231,0.28283 -0.4318,0.64452 -0.4318,1.04669 0,0.39528 0.151342,0.75538 0.437621,1.04166 0.286544,0.28628 0.646907,0.43762 1.041665,0.43762 h 3.795712 c 0.151078,0 0.265378,0.0463 0.370682,0.15002 0.102658,0.10187 0.14896,0.21326 0.14896,0.35983 0,0 0.01455,0.41884 0.02778,0.81889 -0.162983,-0.0233 -0.306916,-0.036 -0.428095,-0.036 h -3.916098 c -0.960967,0 -1.793875,0.34422 -2.475178,1.02341 -0.681831,0.67945 -1.027641,1.50971 -1.027641,2.46829 v 1.16232 c 0,0.96573 0.3429,1.79837 1.01891,2.47385 0.675746,0.67548 1.508919,1.01759 2.475971,1.01759 h 3.501231 c 0,0 0.793221,-0.46408 1.289315,-0.75486 0.06747,0.11589 0.129646,0.23469 0.230981,0.33258 0.289454,0.27993 0.646113,0.42228 1.059392,0.42228 0.393171,0 0.75221,-0.14764 1.03796,-0.42677 0.289454,-0.28205 0.442119,-0.64453 0.442119,-1.04802 l -0.253206,-7.47157 c -0.02699,-0.95805 -0.381265,-1.78197 -1.052777,-2.44633 -0.673629,-0.66623 -1.498071,-1.00357 -2.449777,-1.00357 z m -0.364861,9.2329 -7.93e-4,-2.6e-4 c -0.106627,-0.1061 -0.154252,-0.21564 -0.154252,-0.35481 v -1.10807 c 0,-0.14764 0.04604,-0.25824 0.148695,-0.36063 0.103982,-0.10319 0.216694,-0.14949 0.366184,-0.14949 h 3.920596 c 0.148431,0 0.258762,0.045 0.358775,0.14525 0.101864,0.10266 0.151871,0.22675 0.156368,0.38974 0,0 0.0217,0.30903 0.03942,0.56594 -0.380735,0.21749 -1.621631,0.92736 -1.795462,1.02711 -0.232304,0 -2.6797,0 -2.6797,0 -0.141552,2.7e-4 -0.252413,-0.0476 -0.359834,-0.15478 z" id="path12378" style="stroke-width:0.26458335" inkscape:connector-curvature="0"></path><path d="M49.885335,237.84419 c-0.286808,0.28575 -0.438414,0.64505 -0.438414,1.03981 v15.24767 h9.529498 c0.398462,0 0.762,-0.1471 1.051189,-0.42545 c0.294217,-0.28389 0.450057,-0.64822 0.450057,-1.05383 c0,-0.40508 -0.155575,-0.76914 -0.449527,-1.05278 c-0.28919,-0.27887 -0.652727,-0.42624 -1.05119,-0.42624 c0,0 -5.738019,0 -6.571192,0 c0,-0.88874 0,-12.28963 0,-12.28963 c0,-0.39397 -0.151871,-0.75327 -0.439208,-1.03929 c-0.286544,-0.28575 -0.646113,-0.43629 -1.040077,-0.43629 c-0.394759,-2.7e-4 -0.754592,0.15028 -1.041136,0.43603 " id="path12380" style="stroke-width:0.26458335" inkscape:connector-curvature="0"></path><path style="stroke-width:0.26458335" id="path12382" d="m 62.600681,237.40789 h -0.479689 v 16.72378 h 9.529762 c 0.398463,0 0.761736,-0.1471 1.05119,-0.42545 0.294217,-0.28389 0.449527,-0.64822 0.449527,-1.05383 0,-0.40323 -0.151871,-0.76623 -0.440002,-1.0496 -0.28575,-0.28099 -0.64426,-0.42942 -1.036637,-0.42942 0,0 -5.761303,0 -6.595269,0 0,-0.69533 0,-3.22898 0,-3.92457 0.681037,0 2.568575,0 2.568575,0 0.404283,0 0.768085,-0.1524 1.051189,-0.44132 0.280723,-0.28628 0.42889,-0.65352 0.42889,-1.06204 0,-0.39529 -0.151342,-0.75538 -0.43815,-1.04193 -0.286544,-0.28654 -0.646906,-0.43815 -1.041929,-0.43815 0,0 -1.887538,0 -2.568575,0 0,-0.69294 0,-3.18108 0,-3.87403 0.833173,0 6.571456,0 6.571456,0 0.400315,0 0.765175,-0.15055 1.054365,-0.43524 0.291835,-0.2876 0.446087,-0.64876 0.446087,-1.04457 0,-0.40217 -0.152929,-0.76835 -0.442648,-1.05886 -0.290512,-0.29158 -0.656166,-0.44477 -1.058069,-0.44477 z" inkscape:connector-curvature="0"></path><path d="m 93.627576,231.84053 c -0.05371,-8e-4 -0.105834,0 -0.160602,0.003 -2.034117,0.0926 -3.084778,1.67799 -3.451755,2.98847 -0.398198,1.42293 -0.113241,2.32093 -0.433123,2.74347 -0.792162,1.0451 -3.013868,1.92537 -4.418806,2.24208 0,0 0.235479,1.66899 0.59399,2.66435 0.35851,0.99536 0.773641,1.62084 0.512233,3.10303 -0.261408,1.48194 -2.340769,5.58589 -4.010025,9.14242 -1.929871,4.11189 -4.720961,10.28753 -4.707467,17.79455 0.0053,2.87099 0.355071,5.49883 0.836348,7.75864 0.05742,0.0905 0.09419,0.1688 0.106098,0.23707 0.177271,1.00859 3.40995,3.43588 8.406871,3.93647 4.455583,0.44635 7.083425,-0.33444 7.05829,-4.56036 -0.04683,-7.92242 -6.379105,-15.96761 -6.101821,-20.99019 0.599016,-10.77965 8.691033,-18.58566 8.567473,-23.67068 -0.0426,-1.76345 -1.132152,-3.36603 -2.797704,-3.39196 z" id="path3822_1_" style="fill:#ffffff;stroke-width:0.26458335" inkscape:connector-curvature="0"></path><g id="g3835_1_" transform="matrix(0.26458334,0,0,0.26458334,0,229.61882)"><path d="m 346.942,1.53 c -6.919,0 -14.66,2.464 -18.779,7.826 -6.014,7.824 -6.59,21.148 -6.59,21.148 0,0 -5.767,1.833 -4.448,5.457 1.14,3.136 3.824,2.789 4.53,2.636 0.009,-0.004 0.022,-0.009 0.03,-0.011 0.096,-0.021 0.154,-0.041 0.154,-0.041 5.311,-1.196 13.707,-4.523 16.701,-8.474 1.209,-1.596 0.131,-4.99 1.638,-10.369 1.386,-4.953 5.356,-10.945 13.045,-11.295 6.643,-0.302 11.016,5.929 11.182,12.809 0.466,19.22 -30.118,48.723 -32.382,89.464 -1.049,18.983 22.887,49.39 23.063,79.333 0.095,15.972 -9.839,18.923 -26.678,17.236 -18.886,-1.892 -31.104,-11.066 -31.774,-14.878 -0.045,-0.258 -0.185,-0.554 -0.401,-0.896 4.047,18.997 10.544,31.105 10.544,31.105 0,0 -11.317,3.07 -10.986,5.303 0.237,1.607 13.606,7.642 15.188,7.423 1.792,-0.247 8.623,-7.914 12.076,-8.906 4.248,-1.22 57.732,4.837 61.943,7.66 1.23,0.825 0.271,7.742 2.965,9.802 1.4,1.071 23.357,-2.283 24.382,-3.624 0.807,-1.056 -8.051,-7.578 -8.051,-7.578 3.465,-8.09 7.639,-15.373 7.393,-35.255 -0.383,-30.931 -12.851,-62.145 -25.706,-82.784 7.492,1.438 21.752,-2.387 21.834,-4.941 0.096,-2.963 -5.354,-3.871 -7.66,-4.2 -2.307,-0.33 -20.326,-10.381 -28.665,-18.863 -1.197,-4.583 -1.782,-8.727 -1.565,-15.979 0.248,-8.237 4.201,-28.665 4.53,-42.586 0.28,-11.876 -7.497,-26.193 -27.513,-26.522 z" id="path3810_1_" inkscape:connector-curvature="0" style="fill:#8cadcb"></path><path d="m 310.744,95.257 c -5.783,1.546 -14.957,4.437 -14.991,7.259 -0.029,2.479 6.36,2.357 10.78,1.977 1.453,-3.326 2.883,-6.403 4.211,-9.236 z" id="path3832_1_" inkscape:connector-curvature="0" style="fill:#8cadcb"></path></g><g id="g3839_1_" transform="matrix(0.26458334,0,0,0.26458334,0,229.61882)"><path d="m 385.98,114.623 c 10.353,18.205 22.107,40.762 25.566,72.906 1.887,17.52 -1.611,36.669 -7.253,45.133 6.788,5.88 9.843,7.716 8.662,8.127 -2.083,0.726 -22.722,3.803 -24.337,2.995 -3.745,-1.872 -1.45,-8.109 -3.668,-9.916 -3.499,-2.853 -49.02,-7.53 -57.622,-7.655 -8.257,-0.122 -6.684,2.811 -16.119,9.101 -2.098,0.299 -15.869,-6.292 -15.427,-7.574 0.559,-1.618 3.895,-2.911 10.994,-5.154 -3.567,-9.306 -12.377,-27.56 -13.516,-56.044 -1.915,-47.883 27.207,-82.66 28.226,-97.23" stroke-miterlimit="2.818" id="path20_1_" inkscape:connector-curvature="0" style="fill:none;stroke:#000000;stroke-width:3.3592;stroke-linecap:round;stroke-miterlimit:2.81800008"></path><path d="m 321.809,30.501 c 0.546,-13.245 6.262,-26.294 17.321,-28.125 22.553,-3.734 33.281,8.073 35.297,22.744 2.156,15.68 -8.362,41.855 -2.704,61.5" stroke-miterlimit="2.818" id="path22_1_" inkscape:connector-curvature="0" style="fill:none;stroke:#000000;stroke-width:3.3592;stroke-linecap:round;stroke-miterlimit:2.81800008"></path><path d="m 325.74,50.898 c -1.915,-3.419 -3.131,-7.691 -3.668,-12.351" stroke-miterlimit="2.818" id="path24_1_" inkscape:connector-curvature="0" style="fill:none;stroke:#000000;stroke-width:3.3592;stroke-linecap:round;stroke-miterlimit:2.81800008"></path><path d="m 311.102,94.901 c -8.5,2.947 -15.842,5.157 -15.842,7.734 0,2.578 9.273,1.841 11.593,1.105" stroke-miterlimit="2.818" id="path26_1_" inkscape:connector-curvature="0" style="fill:none;stroke:#000000;stroke-width:3.3592;stroke-linecap:round;stroke-miterlimit:2.81800008"></path><path d="m 332.447,27.836 c -3.209,-0.128 -7.451,1.167 -10.506,2.646 -1.559,0.754 -2.808,1.556 -3.455,2.24 -1.916,2.03 0.16,5.368 1.936,5.917 0.308,0.095 0.834,0.069 1.505,-0.046 3.182,-0.546 9.57,-3.083 10.948,-4.021 1.669,-1.136 5.529,-2.307 6.003,-6.137 0.386,-10.68 5.409,-20.623 14.528,-19.887 11.22,0.907 12.257,14.04 10.202,20.623 -4.25,13.626 -27.438,42.351 -31.612,78.116 -2.84,24.298 34.021,69.09 19.767,94.223 -7.73,13.626 -53.481,1.128 -55.124,-9.132" stroke-miterlimit="2.818" id="path28_1_" inkscape:connector-curvature="0" style="fill:none;stroke:#000000;stroke-width:3.3592;stroke-linecap:round;stroke-miterlimit:2.81800008"></path><path d="m 371.723,86.62 c 4.261,5.328 25.749,18.664 30.001,19.032 4.25,0.369 9.658,4.787 3.862,6.261 -4.812,1.224 -12.823,3.463 -19.606,2.71 v 0 c -7.097,-0.993 -18.261,-6.024 -18.261,-6.024" stroke-miterlimit="2.818" id="path30_1_" inkscape:connector-curvature="0" style="fill:none;stroke:#000000;stroke-width:3.3592;stroke-linecap:round;stroke-miterlimit:2.81800008"></path></g><ellipse ry="1.192242" rx="1.5830412" cy="32.906147" cx="250.69507" transform="rotate(60.712782)" id="path3847_1_" style="stroke-width:0.26458991"></ellipse><g id="g8122" transform="matrix(0.23956758,0,0,0.23956758,-12.818076,191.6897)"><g id="g7251" transform="matrix(1.3333333,0,0,-1.3333333,150.06837,292.1863)"></g><g id="g7287" transform="matrix(1.3333333,0,0,-1.3333333,337.3522,326.03777)"></g></g></g></g></svg>