<svg xmlns="http://www.w3.org/2000/svg" height="800" width="1200" viewBox="-112.5 -33.32675 975 199.9605"><path fill="#592b94" d="M61.32 20.41C58.223 6.33 49.022 3.666 39.143 3.666c-17.18 0-28.163 11.75-28.163 32.709 0 16.856 7.99 35.378 29.943 35.378 3.994 0 7.763-.445 10.424-1.448 2.432-1.01 3.21-1.774 3.21-7.095v-9.882c0-7.543-.435-8.312-12.529-9.197v-2.552h28.5v2.552c-6.21.99-6.655 1.339-6.655 9.197v7.555c0 3.987.112 7.537.662 10.086-6.88 1.885-15.85 4.426-24.172 4.426C16.973 75.395 0 60.215 0 38.486 0 13.428 20.072 0 41.026 0c9.658 0 17.3 1.883 21.18 2.883.341 3.767.9 9.544 1.78 17.192zm31.723 39.548c0 10.359.755 11.026 8.549 11.596v2.188H76.314v-2.188c7.985-.57 8.743-1.237 8.743-11.596V25.751c0-10.378-.758-11.036-8.365-11.607v-2.18h24.136c6.087 0 11.507.854 15.017 3.217 3.805 2.385 6.278 6.67 6.278 12.177 0 7.888-4.847 13.51-12.549 16.636 1.713 2.853 5.604 9.4 8.463 13.601 3.42 5.027 5.419 7.596 7.991 10.443 1.985 2.377 3.707 3.91 7.12 4.738l-.186 1.819h-1.338c-10.922-.283-14.25-3.611-17.867-8.836-2.94-4.286-6.945-11.314-9.6-15.775-1.518-2.478-3.032-3.426-5.98-3.426h-5.134zm0-16.156h5.505c3.896 0 6.945-.471 9.511-2.56 4.084-3.231 5.515-7.896 5.515-12.552 0-9.974-7.223-13.975-14.36-13.975-3.23 0-4.56.195-5.323.466-.567.192-.848.675-.848 2.589z"/><path fill="#592b94" d="M170.122 71.553l3.05-.39c3.517-.366 3.899-1.411 2.951-4.352-.67-2.285-3.425-9.704-6.08-16.541H150.75c-.96 2.459-3.427 9.882-4.767 13.869-1.795 5.513-.94 6.758 3.34 7.129l2.84.285v2.187h-20.334v-2.187c6.186-.656 6.934-1.235 10.266-9.69l19.575-50.464 2.183-.867 6.753 18.063c4.472 12.074 8.648 24.134 12.362 33.838 3.039 7.982 4.282 8.654 10.169 9.12v2.187h-23.015zm-18.145-24.904h16.826l-8.37-23.374h-.186zm100.847 27.766h-2.477L209.1 24.322h-.188v24.227c0 9.99.374 15.13.758 18.06.486 3.321 3.037 4.659 9.323 4.945v2.186H196.17v-2.186c5.237-.183 7.7-1.624 8.18-4.945.375-2.93.763-8.07.763-18.06V27.94c0-6.846-.1-8.372-1.82-10.554-1.793-2.291-4.366-2.95-8.349-3.24v-2.18h13.871l40.014 47.9h.192V37.152c0-9.979-.384-15.11-.765-18.061-.482-3.32-3.036-4.657-9.315-4.948v-2.18h22.818v2.18c-5.23.19-7.706 1.628-8.187 4.948-.37 2.95-.748 8.082-.748 18.06zm41.152-62.45c11.313 0 20.443 2.279 26.516 7.986 4.763 4.454 8.266 11.397 8.266 20.154 0 23.454-17.956 33.637-40.295 33.637H266.6v-2.188c8.174-.57 8.94-1.237 8.94-11.596V25.751c0-10.378-.766-11.036-8.176-11.607v-2.179zm-10.451 49.603c0 4.376.288 6.278 1.617 7.407 1.231 1.055 3.512 1.633 6.746 1.633 19.957 0 27.648-13.785 27.648-28.034 0-9.615-2.076-19.766-11.584-24.72-3.71-1.998-9.126-3.14-16.72-3.14-4.757 0-6.09.289-6.852.574-.567.192-.855.754-.855 2.664zm137.058-41.726c-3.334-12.74-10.429-16.176-21.288-16.176-19.972 0-28.84 15.067-28.84 32.484 0 21.394 10.978 35.603 28.955 35.603 12.411 0 18.17-5.995 23.617-17.646l2.769.338c-1.449 4.766-3.885 13.641-5.653 17.852-3.115.776-13.09 3.098-20.848 3.098-28.064 0-39.812-19.06-39.812-36.694 0-22.844 17.63-38.701 41.92-38.701 9.414 0 16.84 2.228 19.955 2.883.886 6.102 1.34 10.98 2.007 16.745zm45.511 51.711l3.033-.39c3.521-.366 3.901-1.411 2.953-4.352-.661-2.285-3.417-9.704-6.084-16.541h-19.282c-.962 2.459-3.43 9.882-4.765 13.869-1.81 5.513-.952 6.758 3.332 7.129l2.846.285v2.187h-20.339v-2.187c6.17-.656 6.945-1.235 10.27-9.69l19.567-50.464 2.187-.867 6.756 18.063c4.455 12.074 8.637 24.134 12.348 33.838 3.05 7.982 4.285 8.654 10.184 9.12v2.187h-23.006zm-18.162-24.904h16.826l-8.36-23.374h-.195zm100.843 27.766h-2.46l-41.269-50.093h-.18v24.227c0 9.99.39 15.13.764 18.06.472 3.321 3.044 4.659 9.31 4.945v2.186h-22.816v-2.186c5.228-.183 7.705-1.624 8.182-4.945.385-2.93.765-8.07.765-18.06V27.94c0-6.846-.096-8.372-1.806-10.554-1.817-2.291-4.381-2.95-8.363-3.24v-2.18h13.876l40.017 47.9h.197V37.152c0-9.979-.394-15.11-.778-18.061-.468-3.32-3.036-4.657-9.314-4.948v-2.18h22.81v2.18c-5.225.19-7.684 1.628-8.163 4.948-.376 2.95-.772 8.082-.772 18.06zm42.875-14.457c0 10.359.754 11.026 9.884 11.596v2.188h-27.378v-2.188c8.754-.57 9.51-1.237 9.51-11.596V49.14c0-1.733-.278-2.581-2.086-5.72-4.291-7.41-7.997-14.257-12.073-21.293-4.1-7.032-4.469-7.315-9.985-7.982v-2.18h22.905v2.18l-4.375.57c-2.37.38-3.04 1.244-1.423 4.187 4.277 7.976 8.646 15.874 13.31 23.673 4.004-7.615 8.266-15.4 11.788-23.206 1.616-3.41.845-4.365-2.763-4.739l-3.801-.485v-2.18h20.923v2.18c-6.371.57-6.856 1.814-10.839 8.092-4.28 6.64-7.897 13.206-11.983 20.798-1.42 2.573-1.615 3.151-1.615 5.136zm85.652-17.965c0 19.768-13.788 33.175-31.94 33.175-17.958 0-30.704-13.695-30.704-31.657 0-15.957 11.217-32.978 32.408-32.978 16.448 0 30.236 12.741 30.236 31.46M644.6 13.67c-11.218 0-20.714 9.226-20.714 27.1 0 18.34 9.596 31.274 23.467 31.274 11.412 0 20.736-8.858 20.736-26.526 0-20.537-9.892-31.848-23.49-31.848m96.471 60.745h-2.474l-41.252-50.093h-.185v24.227c0 9.99.382 15.13.766 18.06.47 3.321 3.04 4.659 9.307 4.945v2.186h-22.8v-2.186c5.218-.183 7.689-1.624 8.177-4.945.377-2.93.755-8.07.755-18.06V27.94c0-6.846-.086-8.372-1.805-10.554-1.807-2.291-4.384-2.95-8.378-3.24v-2.18h13.881l40.027 47.9h.187V37.152c0-9.979-.403-15.11-.756-18.061-.478-3.32-3.045-4.657-9.312-4.948v-2.18H750v2.18c-5.227.19-7.687 1.628-8.166 4.948-.385 2.95-.763 8.082-.763 18.06z"/><path fill="#231f20" d="M148.54 95.847v21.822c0 8.256 3.664 11.76 8.585 11.76 5.471 0 8.972-3.61 8.972-11.76V95.847h4.808v21.491c0 11.323-5.959 15.969-13.945 15.969-7.549 0-13.234-4.322-13.234-15.748V95.847zm52.04 36.857V95.848h5.197l11.805 18.648c2.736 4.321 4.876 8.202 6.629 11.972l.102-.052c-.436-4.925-.55-9.408-.55-15.146V95.848h4.489v36.856h-4.814l-11.706-18.702c-2.562-4.1-5.028-8.311-6.89-12.304l-.158.056c.275 4.65.377 9.077.377 15.202v15.748zm57.399 0h4.76V95.848h-4.76zm42.596 0L288.54 95.848h5.133l5.744 18.154c1.595 4.978 2.957 9.462 3.944 13.783h.11c1.036-4.266 2.568-8.915 4.205-13.729l6.235-18.208h5.083l-13.171 36.856zm62.925-17.28h-14.334v13.29h15.97v3.99H344.41V95.848h19.91v3.99h-15.154v11.647h14.333zm33.999-2.297h4.867c5.086 0 8.304-2.791 8.304-7 0-4.755-3.445-6.834-8.465-6.892-2.305 0-3.94.22-4.706.44zm-4.757-16.787c2.403-.493 5.848-.764 9.136-.764 5.076 0 8.357.925 10.661 3.004 1.853 1.642 2.895 4.158 2.895 7 0 4.866-3.061 8.097-6.952 9.41v.167c2.854.975 4.55 3.602 5.42 7.43 1.205 5.142 2.077 8.696 2.844 10.116h-4.922c-.6-1.096-1.421-4.21-2.455-8.8-1.095-5.085-3.068-7.002-7.387-7.169H397.5v15.97h-4.757zm50.178 30.568c2.133 1.313 5.253 2.408 8.536 2.408 4.866 0 7.708-2.576 7.708-6.29 0-3.444-1.97-5.415-6.948-7.33-6.012-2.129-9.728-5.25-9.728-10.446 0-5.742 4.761-10.005 11.919-10.005 3.77 0 6.504.876 8.147 1.804l-1.306 3.886c-1.205-.658-3.669-1.752-7.003-1.752-5.036 0-6.945 3.011-6.945 5.523 0 3.444 2.242 5.139 7.326 7.11 6.234 2.407 9.404 5.411 9.404 10.824 0 5.69-4.21 10.667-12.905 10.667-3.554 0-7.437-1.096-9.407-2.408zm49.04 5.796h4.756V95.848h-4.756zm41.493-32.814h-11.206v-4.042h27.287v4.041h-11.267v32.815h-4.814zm51.334 32.814v-15.637l-11.642-21.219h5.41l5.191 10.173a151.202 151.202 0 013.668 7.601h.11c1.042-2.409 2.298-4.816 3.716-7.601l5.306-10.173h5.417l-12.366 21.16v15.696zm29.841-36.998h.578c.673 0 1.22-.225 1.22-.772 0-.48-.353-.801-1.124-.801-.321 0-.545.034-.674.065zm-.03 2.95h-1.22v-5.26c.48-.065 1.154-.16 2.02-.16.993 0 1.442.16 1.798.416.318.225.543.608.543 1.124 0 .641-.48 1.057-1.09 1.25v.063c.513.161.771.58.93 1.285.16.801.288 1.088.384 1.281h-1.282c-.16-.193-.255-.642-.418-1.281-.095-.546-.415-.802-1.09-.802h-.576zm.8-6.928c-2.276 0-4.042 1.893-4.042 4.2 0 2.343 1.766 4.203 4.105 4.203 2.278.03 4.01-1.86 4.01-4.17 0-2.34-1.732-4.233-4.04-4.233zm.063-1.058c2.982 0 5.357 2.309 5.357 5.258 0 2.952-2.375 5.292-5.388 5.292s-5.419-2.34-5.419-5.292c0-2.95 2.406-5.258 5.42-5.258z"/></svg>